<svg width="24" height="24" viewBox="0 0 24 24" fill="none" xmlns="http://www.w3.org/2000/svg">
<path d="M21.25 12C21.25 6.89121 17.1088 2.75 12 2.75C6.89121 2.75 2.75 6.89121 2.75 12C2.75 17.1088 6.89121 21.25 12 21.25C17.1088 21.25 21.25 17.1088 21.25 12ZM11.25 16.5V11.5C11.25 11.0858 11.5858 10.75 12 10.75C12.4142 10.75 12.75 11.0858 12.75 11.5V16.5C12.75 16.9142 12.4142 17.25 12 17.25C11.5858 17.25 11.25 16.9142 11.25 16.5ZM12.5547 8.01465C12.276 8.32093 11.8015 8.34397 11.4951 8.06543C11.1886 7.78682 11.1667 7.31235 11.4453 7.00586L12.5547 8.01465ZM11.4551 6.99414C11.7337 6.68785 12.2082 6.66577 12.5146 6.94434C12.8209 7.22299 12.844 7.69749 12.5654 8.00391L12.5547 8.01465L11.4453 7.00586L11.4551 6.99414ZM22.75 12C22.75 17.9372 17.9372 22.75 12 22.75C6.06279 22.75 1.25 17.9372 1.25 12C1.25 6.06279 6.06279 1.25 12 1.25C17.9372 1.25 22.75 6.06279 22.75 12Z" fill="white" style="fill:white;fill-opacity:1;"/>
</svg>
