<svg width="78" height="78" viewBox="0 0 78 78" fill="none" xmlns="http://www.w3.org/2000/svg">
<g filter="url(#filter0_fn_108434_8534)">
<path d="M68.1069 8C69.1524 8 70 8.86745 70 9.9375V67.3965C70 68.8343 68.861 70 67.4561 70C66.6721 70 65.932 69.63 65.45 68.9972L43.5694 40.2701C42.4619 38.816 40.1832 39.6176 40.1832 41.4614V67.4201C40.1832 68.8449 39.0546 70 37.6624 70C36.8661 70 36.1167 69.6148 35.641 68.9612L9.49934 33.0409C8.52582 31.7031 8.00001 30.0796 8 28.4116V9.23104C8.00009 8.06537 9.45168 7.57294 10.1321 8.50779L31.2798 37.5663C32.9128 39.8101 36.3969 38.6281 36.3969 35.8303V10.568C36.3969 9.14977 37.5204 8 38.9062 8C39.7086 8.00001 40.4625 8.39281 40.9347 9.05673L61.0781 37.3773C62.6963 39.6524 66.2137 38.4808 66.2137 35.6668V9.9375C66.2137 8.86745 67.0613 8 68.1069 8Z" fill="black" fill-opacity="0.8" style="fill:black;fill-opacity:0.8;"/>
<path d="M68.1069 8C69.1524 8 70 8.86745 70 9.9375V67.3965C70 68.8343 68.861 70 67.4561 70C66.6721 70 65.932 69.63 65.45 68.9972L43.5694 40.2701C42.4619 38.816 40.1832 39.6176 40.1832 41.4614V67.4201C40.1832 68.8449 39.0546 70 37.6624 70C36.8661 70 36.1167 69.6148 35.641 68.9612L9.49934 33.0409C8.52582 31.7031 8.00001 30.0796 8 28.4116V9.23104C8.00009 8.06537 9.45168 7.57294 10.1321 8.50779L31.2798 37.5663C32.9128 39.8101 36.3969 38.6281 36.3969 35.8303V10.568C36.3969 9.14977 37.5204 8 38.9062 8C39.7086 8.00001 40.4625 8.39281 40.9347 9.05673L61.0781 37.3773C62.6963 39.6524 66.2137 38.4808 66.2137 35.6668V9.9375C66.2137 8.86745 67.0613 8 68.1069 8Z" fill="url(#paint0_linear_108434_8534)" style=""/>
</g>
<defs>
<filter id="filter0_fn_108434_8534" x="0" y="0" width="78" height="78" filterUnits="userSpaceOnUse" color-interpolation-filters="sRGB">
<feFlood flood-opacity="0" result="BackgroundImageFix"/>
<feBlend mode="normal" in="SourceGraphic" in2="BackgroundImageFix" result="shape"/>
<feGaussianBlur stdDeviation="0" result="effect1_foregroundBlur_108434_8534"/>
<feTurbulence type="fractalNoise" baseFrequency="5 5" stitchTiles="stitch" numOctaves="3" result="noise" seed="6866" />
<feColorMatrix in="noise" type="luminanceToAlpha" result="alphaNoise" />
<feComponentTransfer in="alphaNoise" result="coloredNoise1">
<feFuncA type="discrete" tableValues="1 1 1 1 1 1 1 1 1 1 1 1 1 1 1 1 1 1 1 1 1 1 1 1 1 1 1 1 1 1 1 1 1 1 1 1 1 1 1 1 1 1 1 1 1 1 1 1 1 1 1 0 0 0 0 0 0 0 0 0 0 0 0 0 0 0 0 0 0 0 0 0 0 0 0 0 0 0 0 0 0 0 0 0 0 0 0 0 0 0 0 0 0 0 0 0 0 0 0 0 "/>
</feComponentTransfer>
<feComposite operator="in" in2="effect1_foregroundBlur_108434_8534" in="coloredNoise1" result="noise1Clipped" />
<feFlood flood-color="rgba(0, 0, 0, 0.25)" result="color1Flood" />
<feComposite operator="in" in2="noise1Clipped" in="color1Flood" result="color1" />
<feMerge result="effect2_noise_108434_8534">
<feMergeNode in="effect1_foregroundBlur_108434_8534" />
<feMergeNode in="color1" />
</feMerge>
</filter>
<linearGradient id="paint0_linear_108434_8534" x1="9.2893" y1="17.0417" x2="51.2708" y2="13.8125" gradientUnits="userSpaceOnUse">
<stop stop-color="#ACFFF1" style="stop-color:#ACFFF1;stop-color:color(display-p3 0.6754 1.0000 0.9459);stop-opacity:1;"/>
<stop offset="0.0726542" stop-color="#4E97CF" style="stop-color:#4E97CF;stop-color:color(display-p3 0.3059 0.5922 0.8118);stop-opacity:1;"/>
<stop offset="0.242274" stop-color="#6C5A9D" style="stop-color:#6C5A9D;stop-color:color(display-p3 0.4235 0.3529 0.6157);stop-opacity:1;"/>
<stop offset="0.317377" stop-color="#805899" stop-opacity="0.974737" style="stop-color:#805899;stop-color:color(display-p3 0.5020 0.3440 0.6001);stop-opacity:0.974737;"/>
<stop offset="0.893358" stop-opacity="0" style="stop-color:none;stop-opacity:0;"/>
</linearGradient>
</defs>
</svg>
