<svg width="24" height="24" viewBox="0 0 24 24" fill="none" xmlns="http://www.w3.org/2000/svg">
<path d="M16.5703 8.38574C16.9096 8.14838 17.3768 8.23104 17.6143 8.57031C17.8516 8.90963 17.769 9.37677 17.4297 9.61426L12.4297 13.1143C12.1715 13.2948 11.8285 13.2948 11.5703 13.1143L6.57031 9.61426C6.23104 9.37677 6.14838 8.90963 6.38574 8.57031C6.62323 8.23104 7.09037 8.14838 7.42969 8.38574L12 11.585L16.5703 8.38574Z" fill="white" style="fill:white;fill-opacity:1;"/>
<path d="M21.25 7C21.25 6.66848 21.1182 6.35063 20.8838 6.11621C20.6494 5.88179 20.3315 5.75 20 5.75H4C3.66848 5.75 3.35063 5.88179 3.11621 6.11621C2.88179 6.35063 2.75 6.66848 2.75 7V17C2.75 17.3315 2.88179 17.6494 3.11621 17.8838C3.35063 18.1182 3.66848 18.25 4 18.25H20C20.3315 18.25 20.6494 18.1182 20.8838 17.8838C21.1182 17.6494 21.25 17.3315 21.25 17V7ZM22.75 17C22.75 17.7293 22.4601 18.4286 21.9443 18.9443C21.4286 19.4601 20.7293 19.75 20 19.75H4C3.27065 19.75 2.57139 19.4601 2.05566 18.9443C1.53994 18.4286 1.25 17.7293 1.25 17V7C1.25 6.27065 1.53994 5.57139 2.05566 5.05566C2.57139 4.53994 3.27065 4.25 4 4.25H20C20.7293 4.25 21.4286 4.53994 21.9443 5.05566C22.4601 5.57139 22.75 6.27065 22.75 7V17Z" fill="white" style="fill:white;fill-opacity:1;"/>
</svg>
