<svg width="89" height="30" viewBox="0 0 89 30" fill="none" xmlns="http://www.w3.org/2000/svg">
<g filter="url(#filter0_fn_323_6385)">
<path d="M26.2672 3C26.6719 3 27 3.33579 27 3.75V25.9922C27 26.5488 26.5591 27 26.0153 27C25.7118 27 25.4253 26.8568 25.2387 26.6118L16.7688 15.4916C16.3401 14.9288 15.458 15.2391 15.458 15.9528V26.0013C15.458 26.5529 15.0211 27 14.4822 27C14.174 27 13.8839 26.8509 13.6998 26.5979L3.58039 12.6932C3.20354 12.1754 3 11.547 3 10.9013V3.47653C3.00004 3.0253 3.56194 2.83469 3.82532 3.19656L12.0115 14.445C12.6437 15.3136 13.9924 14.856 13.9924 13.773V3.99408C13.9924 3.44507 14.4272 3 14.9637 3C15.2743 3 15.5661 3.15206 15.7489 3.40906L23.5464 14.3719C24.1728 15.2525 25.5343 14.799 25.5344 13.7097V3.75C25.5344 3.33579 25.8624 3 26.2672 3Z" fill="black" style="fill:black;fill-opacity:1;"/>
<path d="M26.2672 3C26.6719 3 27 3.33579 27 3.75V25.9922C27 26.5488 26.5591 27 26.0153 27C25.7118 27 25.4253 26.8568 25.2387 26.6118L16.7688 15.4916C16.3401 14.9288 15.458 15.2391 15.458 15.9528V26.0013C15.458 26.5529 15.0211 27 14.4822 27C14.174 27 13.8839 26.8509 13.6998 26.5979L3.58039 12.6932C3.20354 12.1754 3 11.547 3 10.9013V3.47653C3.00004 3.0253 3.56194 2.83469 3.82532 3.19656L12.0115 14.445C12.6437 15.3136 13.9924 14.856 13.9924 13.773V3.99408C13.9924 3.44507 14.4272 3 14.9637 3C15.2743 3 15.5661 3.15206 15.7489 3.40906L23.5464 14.3719C24.1728 15.2525 25.5343 14.799 25.5344 13.7097V3.75C25.5344 3.33579 25.8624 3 26.2672 3Z" fill="url(#paint0_linear_323_6385)" style=""/>
</g>
<rect x="22" y="1" width="21.7984" height="8.0001" rx="4.00005" fill="#FFD028" style="fill:#FFD028;fill:color(display-p3 1.0000 0.8176 0.1582);fill-opacity:1;"/>
<path d="M37.4667 7.0001C36.7588 7.0001 36.2705 6.68186 36.2705 6.14963C36.2705 5.62289 36.7259 5.27173 37.527 5.2004L38.7506 5.09066L38.7561 5.05225C38.7835 4.83826 38.5695 4.67914 38.1361 4.67914C37.7081 4.67914 37.4337 4.83826 37.313 5.06871L36.5558 4.85472C36.7918 4.33895 37.3569 3.98779 38.1964 3.98779C39.1127 3.98779 39.6943 4.38285 39.5956 5.07968L39.4474 6.13317C39.4255 6.29229 39.5133 6.35264 39.7986 6.29229L39.7108 6.93974C39.1456 7.04948 38.7616 6.89585 38.6518 6.61053C38.3665 6.84646 37.9605 7.0001 37.4667 7.0001ZM38.6463 5.83688L38.6683 5.67227L37.6203 5.78201C37.2966 5.81493 37.1319 5.91369 37.1319 6.08379C37.1319 6.25388 37.3185 6.35813 37.6532 6.35813C38.1745 6.35813 38.6079 6.13317 38.6463 5.83688Z" fill="black" style="fill:black;fill-opacity:1;"/>
<path d="M33.9424 5.97954L34.1125 4.77243H33.4541L33.5584 4.04816H34.2168L34.3265 3.24707H35.1934L35.0782 4.04816H36.2799L36.1756 4.77243H34.9795L34.8313 5.80396C34.7929 6.10574 34.952 6.23194 35.2977 6.23194C35.5172 6.23194 35.7421 6.17707 35.9452 6.10025L36.0165 6.80806C35.7696 6.90683 35.4733 6.98364 35.1057 6.98364C34.3265 6.98364 33.8492 6.627 33.9424 5.97954Z" fill="black" style="fill:black;fill-opacity:1;"/>
<path d="M31.6289 6.30875C31.9966 6.30875 32.3093 6.14414 32.4629 5.85882L33.2092 6.1606C32.9238 6.69283 32.3258 7.0001 31.5905 7.0001C30.6413 7.0001 29.95 6.413 29.95 5.58997C29.95 4.71206 30.6852 3.98779 31.7551 3.98779C32.7263 3.98779 33.3409 4.57489 33.3409 5.34306C33.3409 5.43633 33.3354 5.56253 33.3024 5.72165H30.7949C30.8717 6.08927 31.2119 6.30875 31.6289 6.30875ZM31.7112 4.66817C31.3217 4.66817 31.0034 4.87118 30.8608 5.18394H32.4904C32.4575 4.90959 32.1776 4.66817 31.7112 4.66817Z" fill="black" style="fill:black;fill-opacity:1;"/>
<path d="M26.9328 6.57745L26.8779 6.93959H26L26.5542 3H27.4321L27.24 4.36624C27.465 4.13579 27.8326 3.98764 28.2441 3.98764C29.1385 3.98764 29.6927 4.60217 29.6927 5.37582C29.6927 6.22629 29.0397 6.99994 28.0137 6.99994C27.5528 6.99994 27.1742 6.83534 26.9328 6.57745ZM27.9917 4.69545C27.4266 4.69545 27.0425 5.09051 27.0425 5.56238C27.0425 6.00133 27.3937 6.29214 27.8875 6.29214C28.4526 6.29214 28.8367 5.89708 28.8367 5.42521C28.8367 4.99174 28.4856 4.69545 27.9917 4.69545Z" fill="black" style="fill:black;fill-opacity:1;"/>
<path d="M40 22L35.44 7.94H38.12L41.5 18.76H40.6L43.92 7.94H45.94L49.26 18.76H48.34L51.74 7.94H54.42L49.84 22H47.82L44.48 11.2H45.36L42.04 22H40ZM56.0038 22V12.34H58.6438V22H56.0038ZM57.3238 10.78C56.8971 10.78 56.5438 10.64 56.2638 10.36C55.9838 10.0667 55.8438 9.70667 55.8438 9.28C55.8438 8.86667 55.9838 8.51333 56.2638 8.22C56.5438 7.92667 56.8971 7.78 57.3238 7.78C57.7638 7.78 58.1171 7.92667 58.3838 8.22C58.6638 8.51333 58.8038 8.86667 58.8038 9.28C58.8038 9.70667 58.6638 10.0667 58.3838 10.36C58.1171 10.64 57.7638 10.78 57.3238 10.78ZM65.0447 22.2C64.1514 22.2 63.3514 21.98 62.6447 21.54C61.938 21.1 61.378 20.5 60.9647 19.74C60.5647 18.98 60.3647 18.1267 60.3647 17.18C60.3647 16.22 60.5647 15.36 60.9647 14.6C61.378 13.84 61.9314 13.24 62.6247 12.8C63.3314 12.36 64.138 12.14 65.0447 12.14C65.738 12.14 66.358 12.28 66.9047 12.56C67.4647 12.84 67.9114 13.2333 68.2447 13.74C68.5914 14.2333 68.778 14.7933 68.8047 15.42V18.86C68.778 19.4867 68.598 20.0533 68.2647 20.56C67.9314 21.0667 67.4847 21.4667 66.9247 21.76C66.3647 22.0533 65.738 22.2 65.0447 22.2ZM65.4847 19.78C65.978 19.78 66.4047 19.6733 66.7647 19.46C67.138 19.2333 67.4247 18.9267 67.6247 18.54C67.838 18.14 67.9447 17.68 67.9447 17.16C67.9447 16.6533 67.838 16.2067 67.6247 15.82C67.4247 15.42 67.138 15.1133 66.7647 14.9C66.4047 14.6733 65.9847 14.56 65.5047 14.56C65.0114 14.56 64.578 14.6733 64.2047 14.9C63.8447 15.1267 63.558 15.4333 63.3447 15.82C63.1447 16.2067 63.0447 16.6533 63.0447 17.16C63.0447 17.68 63.1447 18.14 63.3447 18.54C63.558 18.9267 63.8514 19.2333 64.2247 19.46C64.598 19.6733 65.018 19.78 65.4847 19.78ZM70.4047 22H67.8047V19.4L68.2247 17.04L67.7847 14.72V7.54H70.4047V22ZM76.7625 22.2C75.8825 22.2 75.0892 21.98 74.3825 21.54C73.6758 21.1 73.1225 20.5 72.7225 19.74C72.3225 18.98 72.1225 18.1267 72.1225 17.18C72.1225 16.22 72.3225 15.36 72.7225 14.6C73.1225 13.84 73.6758 13.24 74.3825 12.8C75.0892 12.36 75.8825 12.14 76.7625 12.14C77.4558 12.14 78.0758 12.28 78.6225 12.56C79.1692 12.84 79.6025 13.2333 79.9225 13.74C80.2558 14.2333 80.4358 14.7933 80.4625 15.42V18.9C80.4358 19.54 80.2558 20.1067 79.9225 20.6C79.6025 21.0933 79.1692 21.4867 78.6225 21.78C78.0758 22.06 77.4558 22.2 76.7625 22.2ZM77.2425 19.78C77.9758 19.78 78.5692 19.54 79.0225 19.06C79.4758 18.5667 79.7025 17.9333 79.7025 17.16C79.7025 16.6533 79.5958 16.2067 79.3825 15.82C79.1825 15.42 78.8958 15.1133 78.5225 14.9C78.1625 14.6733 77.7358 14.56 77.2425 14.56C76.7625 14.56 76.3358 14.6733 75.9625 14.9C75.6025 15.1133 75.3158 15.42 75.1025 15.82C74.9025 16.2067 74.8025 16.6533 74.8025 17.16C74.8025 17.68 74.9025 18.14 75.1025 18.54C75.3158 18.9267 75.6025 19.2333 75.9625 19.46C76.3358 19.6733 76.7625 19.78 77.2425 19.78ZM79.5625 22V19.4L79.9825 17.04L79.5625 14.72V12.34H82.1625V22H79.5625ZM84.4803 22V12.34H87.1203V22H84.4803ZM85.8003 10.78C85.3736 10.78 85.0203 10.64 84.7403 10.36C84.4603 10.0667 84.3203 9.70667 84.3203 9.28C84.3203 8.86667 84.4603 8.51333 84.7403 8.22C85.0203 7.92667 85.3736 7.78 85.8003 7.78C86.2403 7.78 86.5936 7.92667 86.8603 8.22C87.1403 8.51333 87.2803 8.86667 87.2803 9.28C87.2803 9.70667 87.1403 10.0667 86.8603 10.36C86.5936 10.64 86.2403 10.78 85.8003 10.78Z" fill="black" style="fill:black;fill-opacity:1;"/>
<defs>
<filter id="filter0_fn_323_6385" x="0" y="0" width="30" height="30" filterUnits="userSpaceOnUse" color-interpolation-filters="sRGB">
<feFlood flood-opacity="0" result="BackgroundImageFix"/>
<feBlend mode="normal" in="SourceGraphic" in2="BackgroundImageFix" result="shape"/>
<feGaussianBlur stdDeviation="0" result="effect1_foregroundBlur_323_6385"/>
<feTurbulence type="fractalNoise" baseFrequency="5 5" stitchTiles="stitch" numOctaves="3" result="noise" seed="6866" />
<feColorMatrix in="noise" type="luminanceToAlpha" result="alphaNoise" />
<feComponentTransfer in="alphaNoise" result="coloredNoise1">
<feFuncA type="discrete" tableValues="1 1 1 1 1 1 1 1 1 1 1 1 1 1 1 1 1 1 1 1 1 1 1 1 1 1 1 1 1 1 1 1 1 1 1 1 1 1 1 1 1 1 1 1 1 1 1 1 1 1 1 0 0 0 0 0 0 0 0 0 0 0 0 0 0 0 0 0 0 0 0 0 0 0 0 0 0 0 0 0 0 0 0 0 0 0 0 0 0 0 0 0 0 0 0 0 0 0 0 0 "/>
</feComponentTransfer>
<feComposite operator="in" in2="effect1_foregroundBlur_323_6385" in="coloredNoise1" result="noise1Clipped" />
<feFlood flood-color="rgba(0, 0, 0, 0.25)" result="color1Flood" />
<feComposite operator="in" in2="noise1Clipped" in="color1Flood" result="color1" />
<feMerge result="effect2_noise_323_6385">
<feMergeNode in="effect1_foregroundBlur_323_6385" />
<feMergeNode in="color1" />
</feMerge>
</filter>
<linearGradient id="paint0_linear_323_6385" x1="3.49909" y1="6.5" x2="19.75" y2="5.25" gradientUnits="userSpaceOnUse">
<stop stop-color="#ACFFF1" style="stop-color:#ACFFF1;stop-color:color(display-p3 0.6754 1.0000 0.9459);stop-opacity:1;"/>
<stop offset="0.0726542" stop-color="#4E97CF" style="stop-color:#4E97CF;stop-color:color(display-p3 0.3059 0.5922 0.8118);stop-opacity:1;"/>
<stop offset="0.242274" stop-color="#6C5A9D" style="stop-color:#6C5A9D;stop-color:color(display-p3 0.4235 0.3529 0.6157);stop-opacity:1;"/>
<stop offset="0.317377" stop-color="#805899" stop-opacity="0.974737" style="stop-color:#805899;stop-color:color(display-p3 0.5020 0.3440 0.6001);stop-opacity:0.974737;"/>
<stop offset="0.893358" stop-opacity="0" style="stop-color:none;stop-opacity:0;"/>
</linearGradient>
</defs>
</svg>
